# xmcd CD database file
#
# Track frame offsets:
#	150
#	15737
#	31400
#	47202
#	64612
#	78380
#	91735
#	107430
#	122672
#	141080
#	161740
#	180720
#	196322
#
# Disc length: 2910 seconds
#
# Revision: 1
# Processed by: cddbd v1.5.1PL0 Copyright (c) Steve Scherf et al.
# Submitted via: CDex 1.50
#
DISCID=a40b5c0d
DTITLE=Billie Holiday - Lady In Satin
DYEAR=1958
DGENRE=Jazz
TTITLE0=I'm A Fool To Want You
TTITLE1=I'm A Fool To Want You (Mono)
TTITLE2=For Heaven's Sake
TTITLE3=You Don't Know What Love Is
TTITLE4=I Get Along Without You Very Will
TTITLE5=For All We Know
TTITLE6=Violets For Your Furs
TTITLE7=You've Changed
TTITLE8=It's Easy To Remember
TTITLE9=But Beautiful
TTITLE10=Glad To Be Unhappy
TTITLE11=I'll Be Aroud
TTITLE12=The End Of A Love Affair
EXTD=YEAR: 1958
EXTT0=
EXTT1=
EXTT2=
EXTT3=
EXTT4=
EXTT5=
EXTT6=
EXTT7=
EXTT8=
EXTT9=
EXTT10=
EXTT11=
EXTT12=
PLAYORDER=
